<svg xmlns="http://www.w3.org/2000/svg" xmlns:xlink="http://www.w3.org/1999/xlink" width="150" zoomAndPan="magnify" viewBox="0 0 112.5 37.5" height="50" preserveAspectRatio="xMidYMid meet" version="1.0"><defs><g/></defs><g fill="#545454" fill-opacity="1"><g transform="translate(6.212881, 30.661126)"><g><path d="M 23.757812 -0.453125 L 12.257812 -30.039062 C 12.144531 -30.34375 11.613281 -30.34375 11.5 -30.039062 L 0.0390625 -0.453125 C -0.0742188 -0.226562 0.0742188 0 0.417969 0 L 5.597656 0 C 5.75 0 5.941406 -0.0742188 5.976562 -0.226562 L 11.878906 -17.101562 L 17.855469 -0.226562 C 17.894531 -0.0742188 18.085938 0 18.199219 0 L 23.417969 0 C 23.683594 0 23.871094 -0.226562 23.757812 -0.453125 Z M 23.757812 -0.453125 "/></g></g></g><g fill="#545454" fill-opacity="1"><g transform="translate(31.175077, 30.661126)"><g><path d="M 6.242188 -19.292969 L 6.242188 -0.339844 C 6.242188 -0.1875 6.394531 0 6.660156 0 L 11.539062 0 C 11.804688 0 11.992188 -0.1875 11.992188 -0.339844 L 11.992188 -19.292969 Z M 0.417969 -25.082031 L 17.78125 -25.082031 C 18.046875 -25.082031 18.199219 -25.234375 18.199219 -25.421875 L 18.199219 -29.925781 C 18.199219 -30.078125 18.046875 -30.265625 17.78125 -30.265625 L 0.417969 -30.265625 C 0.1875 -30.265625 0 -30.078125 0 -29.925781 L 0 -25.421875 C 0 -25.234375 0.1875 -25.082031 0.417969 -25.082031 Z M 0.417969 -25.082031 "/></g></g></g><g fill="#545454" fill-opacity="1"><g transform="translate(45.811986, 26.940551)"><g><path d="M 2.515625 0.109375 C 1.972656 0.109375 1.59375 -0.171875 1.375 -0.734375 C 1.15625 -1.296875 1.046875 -2.195312 1.046875 -3.4375 C 1.046875 -5.257812 1.304688 -6.992188 1.828125 -8.640625 C 1.960938 -9.046875 2.171875 -9.34375 2.453125 -9.53125 C 2.742188 -9.726562 3.148438 -9.828125 3.671875 -9.828125 C 3.953125 -9.828125 4.144531 -9.789062 4.25 -9.71875 C 4.363281 -9.644531 4.421875 -9.507812 4.421875 -9.3125 C 4.421875 -9.09375 4.316406 -8.585938 4.109375 -7.796875 C 3.972656 -7.234375 3.859375 -6.742188 3.765625 -6.328125 C 3.679688 -5.921875 3.613281 -5.40625 3.5625 -4.78125 C 3.9375 -5.875 4.390625 -6.800781 4.921875 -7.5625 C 5.453125 -8.320312 5.992188 -8.890625 6.546875 -9.265625 C 7.097656 -9.640625 7.617188 -9.828125 8.109375 -9.828125 C 8.609375 -9.828125 8.957031 -9.710938 9.15625 -9.484375 C 9.363281 -9.253906 9.46875 -8.910156 9.46875 -8.453125 C 9.46875 -8.003906 9.332031 -7.1875 9.0625 -6 C 8.945312 -5.5 8.867188 -5.125 8.828125 -4.875 C 9.535156 -6.601562 10.316406 -7.859375 11.171875 -8.640625 C 12.023438 -9.429688 12.828125 -9.828125 13.578125 -9.828125 C 14.484375 -9.828125 14.9375 -9.367188 14.9375 -8.453125 C 14.9375 -7.898438 14.785156 -6.910156 14.484375 -5.484375 C 14.210938 -4.253906 14.078125 -3.445312 14.078125 -3.0625 C 14.078125 -2.5 14.28125 -2.21875 14.6875 -2.21875 C 14.96875 -2.21875 15.300781 -2.390625 15.6875 -2.734375 C 16.070312 -3.078125 16.585938 -3.632812 17.234375 -4.40625 C 17.410156 -4.601562 17.601562 -4.703125 17.8125 -4.703125 C 17.988281 -4.703125 18.128906 -4.613281 18.234375 -4.4375 C 18.347656 -4.269531 18.40625 -4.039062 18.40625 -3.75 C 18.40625 -3.1875 18.269531 -2.75 18 -2.4375 C 17.394531 -1.695312 16.742188 -1.085938 16.046875 -0.609375 C 15.347656 -0.128906 14.5625 0.109375 13.6875 0.109375 C 12.96875 0.109375 12.425781 -0.0976562 12.0625 -0.515625 C 11.695312 -0.929688 11.515625 -1.53125 11.515625 -2.3125 C 11.515625 -2.707031 11.609375 -3.410156 11.796875 -4.421875 C 11.984375 -5.304688 12.078125 -5.921875 12.078125 -6.265625 C 12.078125 -6.484375 12 -6.59375 11.84375 -6.59375 C 11.664062 -6.59375 11.40625 -6.359375 11.0625 -5.890625 C 10.726562 -5.421875 10.390625 -4.796875 10.046875 -4.015625 C 9.710938 -3.242188 9.441406 -2.429688 9.234375 -1.578125 C 9.078125 -0.898438 8.894531 -0.445312 8.6875 -0.21875 C 8.488281 0 8.164062 0.109375 7.71875 0.109375 C 7.25 0.109375 6.898438 -0.109375 6.671875 -0.546875 C 6.441406 -0.992188 6.328125 -1.535156 6.328125 -2.171875 C 6.328125 -2.703125 6.394531 -3.472656 6.53125 -4.484375 C 6.644531 -5.390625 6.703125 -5.984375 6.703125 -6.265625 C 6.703125 -6.484375 6.625 -6.59375 6.46875 -6.59375 C 6.257812 -6.59375 5.992188 -6.335938 5.671875 -5.828125 C 5.347656 -5.328125 5.035156 -4.679688 4.734375 -3.890625 C 4.429688 -3.109375 4.1875 -2.335938 4 -1.578125 C 3.84375 -0.921875 3.660156 -0.472656 3.453125 -0.234375 C 3.253906 -0.00390625 2.941406 0.109375 2.515625 0.109375 Z M 2.515625 0.109375 "/></g></g></g><g fill="#545454" fill-opacity="1"><g transform="translate(61.497731, 26.940551)"><g><path d="M 10.40625 -4.703125 C 10.59375 -4.703125 10.738281 -4.613281 10.84375 -4.4375 C 10.945312 -4.269531 11 -4.039062 11 -3.75 C 11 -3.1875 10.867188 -2.75 10.609375 -2.4375 C 10.085938 -1.8125 9.351562 -1.226562 8.40625 -0.6875 C 7.457031 -0.15625 6.441406 0.109375 5.359375 0.109375 C 3.878906 0.109375 2.734375 -0.289062 1.921875 -1.09375 C 1.109375 -1.894531 0.703125 -2.992188 0.703125 -4.390625 C 0.703125 -5.359375 0.90625 -6.257812 1.3125 -7.09375 C 1.71875 -7.925781 2.28125 -8.585938 3 -9.078125 C 3.726562 -9.578125 4.546875 -9.828125 5.453125 -9.828125 C 6.273438 -9.828125 6.929688 -9.582031 7.421875 -9.09375 C 7.910156 -8.613281 8.15625 -7.957031 8.15625 -7.125 C 8.15625 -6.15625 7.804688 -5.320312 7.109375 -4.625 C 6.421875 -3.925781 5.242188 -3.375 3.578125 -2.96875 C 3.929688 -2.320312 4.597656 -2 5.578125 -2 C 6.210938 -2 6.929688 -2.21875 7.734375 -2.65625 C 8.546875 -3.101562 9.25 -3.6875 9.84375 -4.40625 C 10.007812 -4.601562 10.195312 -4.703125 10.40625 -4.703125 Z M 5.09375 -7.75 C 4.582031 -7.75 4.144531 -7.445312 3.78125 -6.84375 C 3.425781 -6.238281 3.25 -5.507812 3.25 -4.65625 L 3.25 -4.609375 C 4.070312 -4.804688 4.722656 -5.101562 5.203125 -5.5 C 5.679688 -5.894531 5.921875 -6.351562 5.921875 -6.875 C 5.921875 -7.132812 5.847656 -7.34375 5.703125 -7.5 C 5.554688 -7.664062 5.351562 -7.75 5.09375 -7.75 Z M 5.09375 -7.75 "/></g></g></g><g fill="#545454" fill-opacity="1"><g transform="translate(69.783343, 26.940551)"><g><path d="M 11.796875 -4.65625 C 11.984375 -4.65625 12.128906 -4.566406 12.234375 -4.390625 C 12.335938 -4.210938 12.390625 -3.992188 12.390625 -3.734375 C 12.390625 -3.410156 12.335938 -3.15625 12.234375 -2.96875 C 12.140625 -2.789062 11.988281 -2.628906 11.78125 -2.484375 C 10.570312 -1.671875 9.6875 -1.066406 9.125 -0.671875 L 7.78125 0.234375 C 7.25 3.140625 6.550781 5.425781 5.6875 7.09375 C 4.820312 8.757812 3.71875 9.59375 2.375 9.59375 C 1.664062 9.59375 1.082031 9.367188 0.625 8.921875 C 0.175781 8.484375 -0.046875 7.90625 -0.046875 7.1875 C -0.046875 6.1875 0.34375 5.113281 1.125 3.96875 C 1.914062 2.820312 3.394531 1.414062 5.5625 -0.25 L 5.6875 -1.078125 C 5.445312 -0.691406 5.132812 -0.394531 4.75 -0.1875 C 4.363281 0.0078125 3.984375 0.109375 3.609375 0.109375 C 2.734375 0.109375 2.035156 -0.207031 1.515625 -0.84375 C 0.992188 -1.476562 0.734375 -2.304688 0.734375 -3.328125 C 0.734375 -4.453125 0.992188 -5.515625 1.515625 -6.515625 C 2.035156 -7.523438 2.726562 -8.332031 3.59375 -8.9375 C 4.457031 -9.550781 5.375 -9.859375 6.34375 -9.859375 C 6.65625 -9.859375 6.863281 -9.796875 6.96875 -9.671875 C 7.070312 -9.554688 7.160156 -9.347656 7.234375 -9.046875 C 7.492188 -9.097656 7.800781 -9.125 8.15625 -9.125 C 8.507812 -9.125 8.757812 -9.070312 8.90625 -8.96875 C 9.050781 -8.863281 9.125 -8.65625 9.125 -8.34375 C 9.125 -8.175781 9.117188 -8.046875 9.109375 -7.953125 C 9.046875 -7.515625 8.867188 -6.410156 8.578125 -4.640625 C 8.523438 -4.296875 8.46875 -3.925781 8.40625 -3.53125 C 8.34375 -3.132812 8.273438 -2.707031 8.203125 -2.25 C 9.285156 -3.09375 10.320312 -3.835938 11.3125 -4.484375 C 11.5 -4.597656 11.660156 -4.65625 11.796875 -4.65625 Z M 4.359375 -2.03125 C 4.679688 -2.03125 4.988281 -2.222656 5.28125 -2.609375 C 5.582031 -3.003906 5.796875 -3.566406 5.921875 -4.296875 L 6.59375 -7.90625 C 6.019531 -7.894531 5.484375 -7.671875 4.984375 -7.234375 C 4.492188 -6.804688 4.101562 -6.238281 3.8125 -5.53125 C 3.519531 -4.832031 3.375 -4.09375 3.375 -3.3125 C 3.375 -2.875 3.460938 -2.550781 3.640625 -2.34375 C 3.816406 -2.132812 4.054688 -2.03125 4.359375 -2.03125 Z M 2.609375 7.546875 C 2.960938 7.546875 3.359375 7.125 3.796875 6.28125 C 4.242188 5.4375 4.671875 4.09375 5.078125 2.25 C 3.992188 3.175781 3.210938 4.007812 2.734375 4.75 C 2.265625 5.5 2.03125 6.15625 2.03125 6.71875 C 2.03125 6.957031 2.070312 7.15625 2.15625 7.3125 C 2.25 7.46875 2.398438 7.546875 2.609375 7.546875 Z M 2.609375 7.546875 "/></g></g></g><g fill="#545454" fill-opacity="1"><g transform="translate(79.882087, 26.940551)"><g><path d="M 3.609375 0.109375 C 2.734375 0.109375 2.035156 -0.207031 1.515625 -0.84375 C 0.992188 -1.476562 0.734375 -2.304688 0.734375 -3.328125 C 0.734375 -4.453125 0.992188 -5.515625 1.515625 -6.515625 C 2.035156 -7.523438 2.726562 -8.332031 3.59375 -8.9375 C 4.457031 -9.550781 5.375 -9.859375 6.34375 -9.859375 C 6.65625 -9.859375 6.863281 -9.796875 6.96875 -9.671875 C 7.070312 -9.554688 7.160156 -9.347656 7.234375 -9.046875 C 7.523438 -9.097656 7.832031 -9.125 8.15625 -9.125 C 8.84375 -9.125 9.1875 -8.878906 9.1875 -8.390625 C 9.1875 -8.097656 9.082031 -7.394531 8.875 -6.28125 C 8.550781 -4.664062 8.390625 -3.539062 8.390625 -2.90625 C 8.390625 -2.695312 8.441406 -2.53125 8.546875 -2.40625 C 8.648438 -2.28125 8.785156 -2.21875 8.953125 -2.21875 C 9.222656 -2.21875 9.546875 -2.390625 9.921875 -2.734375 C 10.304688 -3.078125 10.820312 -3.632812 11.46875 -4.40625 C 11.632812 -4.601562 11.820312 -4.703125 12.03125 -4.703125 C 12.21875 -4.703125 12.363281 -4.613281 12.46875 -4.4375 C 12.570312 -4.269531 12.625 -4.039062 12.625 -3.75 C 12.625 -3.1875 12.488281 -2.75 12.21875 -2.4375 C 11.644531 -1.726562 11.035156 -1.125 10.390625 -0.625 C 9.742188 -0.132812 9.117188 0.109375 8.515625 0.109375 C 8.046875 0.109375 7.617188 -0.046875 7.234375 -0.359375 C 6.847656 -0.679688 6.554688 -1.117188 6.359375 -1.671875 C 5.628906 -0.484375 4.710938 0.109375 3.609375 0.109375 Z M 4.359375 -2.03125 C 4.671875 -2.03125 4.96875 -2.210938 5.25 -2.578125 C 5.53125 -2.941406 5.734375 -3.425781 5.859375 -4.03125 L 6.640625 -7.90625 C 6.046875 -7.894531 5.5 -7.671875 5 -7.234375 C 4.5 -6.804688 4.101562 -6.238281 3.8125 -5.53125 C 3.519531 -4.832031 3.375 -4.09375 3.375 -3.3125 C 3.375 -2.875 3.460938 -2.550781 3.640625 -2.34375 C 3.816406 -2.132812 4.054688 -2.03125 4.359375 -2.03125 Z M 4.359375 -2.03125 "/></g></g></g><g fill="#545454" fill-opacity="1"><g transform="translate(89.789985, 26.940551)"><g/></g></g></svg>