<svg xmlns="http://www.w3.org/2000/svg" xmlns:xlink="http://www.w3.org/1999/xlink" width="150" zoomAndPan="magnify" viewBox="0 0 112.5 37.5" height="50" preserveAspectRatio="xMidYMid meet" version="1.0"><defs><g/><clipPath id="id1"><path d="M 0.492188 10 L 21 10 L 21 28 L 0.492188 28 Z M 0.492188 10 " clip-rule="nonzero"/></clipPath><clipPath id="id2"><path d="M 95 18 L 111.511719 18 L 111.511719 28 L 95 28 Z M 95 18 " clip-rule="nonzero"/></clipPath></defs><g clip-path="url(#id1)"><g fill="#545454" fill-opacity="1"><g transform="translate(1.236842, 27.50798)"><g><path d="M 18.8125 -4.3125 C 18.976562 -4.3125 19.109375 -4.234375 19.203125 -4.078125 C 19.296875 -3.921875 19.34375 -3.707031 19.34375 -3.4375 C 19.34375 -2.9375 19.222656 -2.535156 18.984375 -2.234375 C 17.710938 -0.679688 16.351562 0.09375 14.90625 0.09375 C 13.65625 0.09375 12.65625 -0.382812 11.90625 -1.34375 C 11.164062 -2.3125 10.796875 -3.695312 10.796875 -5.5 C 10.796875 -5.9375 10.816406 -6.375 10.859375 -6.8125 C 10.003906 -6.65625 9.078125 -6.539062 8.078125 -6.46875 C 7.398438 -6.414062 6.941406 -6.382812 6.703125 -6.375 C 6.441406 -5.0625 6.082031 -3.453125 5.625 -1.546875 C 5.351562 -0.421875 4.835938 0.140625 4.078125 0.140625 C 3.253906 0.140625 2.84375 -0.234375 2.84375 -0.984375 C 2.84375 -1.148438 2.875 -1.382812 2.9375 -1.6875 C 3.375 -3.445312 3.722656 -4.9375 3.984375 -6.15625 L 3.046875 -6.125 C 2.617188 -6.125 2.304688 -6.195312 2.109375 -6.34375 C 1.921875 -6.488281 1.828125 -6.726562 1.828125 -7.0625 C 1.828125 -7.488281 1.945312 -7.800781 2.1875 -8 C 2.4375 -8.195312 2.847656 -8.3125 3.421875 -8.34375 L 4.4375 -8.375 C 4.769531 -10.195312 4.9375 -11.582031 4.9375 -12.53125 C 4.9375 -13.132812 4.847656 -13.546875 4.671875 -13.765625 C 4.492188 -13.984375 4.253906 -14.09375 3.953125 -14.09375 C 3.054688 -14.09375 2.039062 -13.34375 0.90625 -11.84375 C 0.738281 -11.625 0.550781 -11.515625 0.34375 -11.515625 C 0.164062 -11.515625 0.015625 -11.597656 -0.109375 -11.765625 C -0.242188 -11.929688 -0.3125 -12.144531 -0.3125 -12.40625 C -0.3125 -12.800781 -0.148438 -13.222656 0.171875 -13.671875 C 0.742188 -14.453125 1.457031 -15.097656 2.3125 -15.609375 C 3.175781 -16.117188 4.050781 -16.375 4.9375 -16.375 C 5.78125 -16.375 6.429688 -16.085938 6.890625 -15.515625 C 7.347656 -14.941406 7.578125 -14.050781 7.578125 -12.84375 C 7.578125 -11.769531 7.421875 -10.320312 7.109375 -8.5 L 9 -8.59375 C 9.8125 -8.632812 10.503906 -8.695312 11.078125 -8.78125 C 11.316406 -10.195312 11.671875 -11.523438 12.140625 -12.765625 C 12.617188 -14.003906 13.210938 -15.007812 13.921875 -15.78125 C 14.628906 -16.550781 15.421875 -16.9375 16.296875 -16.9375 C 16.941406 -16.9375 17.453125 -16.679688 17.828125 -16.171875 C 18.203125 -15.660156 18.390625 -14.992188 18.390625 -14.171875 C 18.390625 -10.984375 16.757812 -8.769531 13.5 -7.53125 C 13.457031 -7.019531 13.4375 -6.484375 13.4375 -5.921875 C 13.4375 -4.578125 13.601562 -3.617188 13.9375 -3.046875 C 14.28125 -2.484375 14.753906 -2.203125 15.359375 -2.203125 C 15.878906 -2.203125 16.359375 -2.335938 16.796875 -2.609375 C 17.234375 -2.890625 17.726562 -3.363281 18.28125 -4.03125 C 18.4375 -4.21875 18.613281 -4.3125 18.8125 -4.3125 Z M 16.203125 -15.25 C 15.921875 -15.25 15.617188 -14.992188 15.296875 -14.484375 C 14.984375 -13.972656 14.6875 -13.269531 14.40625 -12.375 C 14.125 -11.488281 13.898438 -10.519531 13.734375 -9.46875 C 14.765625 -9.882812 15.523438 -10.484375 16.015625 -11.265625 C 16.503906 -12.054688 16.75 -13.070312 16.75 -14.3125 C 16.75 -14.601562 16.695312 -14.832031 16.59375 -15 C 16.488281 -15.164062 16.359375 -15.25 16.203125 -15.25 Z M 16.203125 -15.25 "/></g></g></g></g><g fill="#545454" fill-opacity="1"><g transform="translate(18.094765, 27.50798)"><g><path d="M 10.78125 -5.921875 C 10.945312 -5.921875 11.070312 -5.835938 11.15625 -5.671875 C 11.25 -5.503906 11.296875 -5.296875 11.296875 -5.046875 C 11.296875 -4.421875 11.109375 -4.050781 10.734375 -3.9375 C 9.960938 -3.664062 9.113281 -3.507812 8.1875 -3.46875 C 7.945312 -2.394531 7.460938 -1.53125 6.734375 -0.875 C 6.015625 -0.226562 5.195312 0.09375 4.28125 0.09375 C 3.507812 0.09375 2.847656 -0.09375 2.296875 -0.46875 C 1.753906 -0.84375 1.34375 -1.335938 1.0625 -1.953125 C 0.78125 -2.566406 0.640625 -3.234375 0.640625 -3.953125 C 0.640625 -4.929688 0.820312 -5.800781 1.1875 -6.5625 C 1.5625 -7.332031 2.078125 -7.929688 2.734375 -8.359375 C 3.398438 -8.796875 4.128906 -9.015625 4.921875 -9.015625 C 5.898438 -9.015625 6.6875 -8.675781 7.28125 -8 C 7.882812 -7.320312 8.238281 -6.488281 8.34375 -5.5 C 8.945312 -5.539062 9.664062 -5.671875 10.5 -5.890625 C 10.601562 -5.910156 10.695312 -5.921875 10.78125 -5.921875 Z M 4.4375 -1.953125 C 4.851562 -1.953125 5.210938 -2.117188 5.515625 -2.453125 C 5.816406 -2.785156 6.019531 -3.269531 6.125 -3.90625 C 5.71875 -4.175781 5.410156 -4.53125 5.203125 -4.96875 C 4.992188 -5.40625 4.890625 -5.867188 4.890625 -6.359375 C 4.890625 -6.554688 4.90625 -6.757812 4.9375 -6.96875 L 4.84375 -6.96875 C 4.332031 -6.96875 3.90625 -6.71875 3.5625 -6.21875 C 3.21875 -5.726562 3.046875 -5.035156 3.046875 -4.140625 C 3.046875 -3.429688 3.179688 -2.890625 3.453125 -2.515625 C 3.734375 -2.140625 4.0625 -1.953125 4.4375 -1.953125 Z M 4.4375 -1.953125 "/></g></g></g><g fill="#545454" fill-opacity="1"><g transform="translate(26.803733, 27.50798)"><g><path d="M 4.515625 0.515625 C 3.847656 0.515625 3.335938 0.359375 2.984375 0.046875 C 2.628906 -0.253906 2.453125 -0.597656 2.453125 -0.984375 C 2.453125 -1.316406 2.570312 -1.601562 2.8125 -1.84375 C 3.0625 -2.09375 3.425781 -2.21875 3.90625 -2.21875 C 4.070312 -2.21875 4.265625 -2.203125 4.484375 -2.171875 C 4.710938 -2.140625 4.882812 -2.117188 5 -2.109375 C 4.988281 -2.441406 4.914062 -2.753906 4.78125 -3.046875 C 4.644531 -3.347656 4.472656 -3.632812 4.265625 -3.90625 C 4.054688 -4.1875 3.863281 -4.429688 3.6875 -4.640625 C 3.289062 -3.878906 2.894531 -3.242188 2.5 -2.734375 C 2.101562 -2.234375 1.675781 -1.757812 1.21875 -1.3125 C 0.988281 -1.082031 0.742188 -0.96875 0.484375 -0.96875 C 0.273438 -0.96875 0.109375 -1.039062 -0.015625 -1.1875 C -0.148438 -1.332031 -0.21875 -1.515625 -0.21875 -1.734375 C -0.21875 -1.992188 -0.125 -2.234375 0.0625 -2.453125 L 0.3125 -2.765625 C 1.019531 -3.640625 1.550781 -4.359375 1.90625 -4.921875 C 2.125 -5.296875 2.378906 -5.796875 2.671875 -6.421875 C 2.972656 -7.046875 3.265625 -7.691406 3.546875 -8.359375 C 3.796875 -8.929688 4.304688 -9.21875 5.078125 -9.21875 C 5.441406 -9.21875 5.691406 -9.179688 5.828125 -9.109375 C 5.972656 -9.046875 6.046875 -8.945312 6.046875 -8.8125 C 6.046875 -8.726562 6.019531 -8.601562 5.96875 -8.4375 C 5.914062 -8.269531 5.84375 -8.101562 5.75 -7.9375 C 5.519531 -7.46875 5.40625 -7.078125 5.40625 -6.765625 C 5.40625 -6.566406 5.472656 -6.351562 5.609375 -6.125 C 5.742188 -5.894531 5.953125 -5.601562 6.234375 -5.25 C 6.648438 -4.707031 6.960938 -4.242188 7.171875 -3.859375 C 7.390625 -3.484375 7.5 -3.070312 7.5 -2.625 C 7.5 -2.5 7.484375 -2.316406 7.453125 -2.078125 C 8.085938 -2.328125 8.828125 -2.976562 9.671875 -4.03125 C 9.828125 -4.21875 10.003906 -4.3125 10.203125 -4.3125 C 10.367188 -4.3125 10.5 -4.234375 10.59375 -4.078125 C 10.6875 -3.921875 10.734375 -3.707031 10.734375 -3.4375 C 10.734375 -2.945312 10.613281 -2.546875 10.375 -2.234375 C 9.726562 -1.441406 9.109375 -0.898438 8.515625 -0.609375 C 7.929688 -0.316406 7.210938 -0.160156 6.359375 -0.140625 C 5.835938 0.296875 5.222656 0.515625 4.515625 0.515625 Z M 4.515625 0.515625 "/></g></g></g><g fill="#545454" fill-opacity="1"><g transform="translate(35.049253, 27.50798)"><g><path d="M 9.546875 -4.3125 C 9.710938 -4.3125 9.84375 -4.234375 9.9375 -4.078125 C 10.03125 -3.921875 10.078125 -3.707031 10.078125 -3.4375 C 10.078125 -2.925781 9.957031 -2.523438 9.71875 -2.234375 C 9.164062 -1.554688 8.554688 -1 7.890625 -0.5625 C 7.234375 -0.125 6.484375 0.09375 5.640625 0.09375 C 3.015625 0.09375 1.703125 -1.753906 1.703125 -5.453125 C 1.703125 -6.015625 1.71875 -6.585938 1.75 -7.171875 L 1 -7.171875 C 0.613281 -7.171875 0.351562 -7.238281 0.21875 -7.375 C 0.0820312 -7.519531 0.015625 -7.742188 0.015625 -8.046875 C 0.015625 -8.773438 0.304688 -9.140625 0.890625 -9.140625 L 1.984375 -9.140625 C 2.203125 -10.554688 2.535156 -11.847656 2.984375 -13.015625 C 3.441406 -14.191406 3.988281 -15.125 4.625 -15.8125 C 5.257812 -16.507812 5.945312 -16.859375 6.6875 -16.859375 C 7.226562 -16.859375 7.648438 -16.617188 7.953125 -16.140625 C 8.265625 -15.671875 8.421875 -15.070312 8.421875 -14.34375 C 8.421875 -12.351562 7.582031 -10.617188 5.90625 -9.140625 L 8.078125 -9.140625 C 8.273438 -9.140625 8.421875 -9.09375 8.515625 -9 C 8.609375 -8.90625 8.65625 -8.738281 8.65625 -8.5 C 8.65625 -7.613281 7.925781 -7.171875 6.46875 -7.171875 L 4.109375 -7.171875 C 4.085938 -6.523438 4.078125 -6.019531 4.078125 -5.65625 C 4.078125 -4.320312 4.234375 -3.382812 4.546875 -2.84375 C 4.859375 -2.300781 5.359375 -2.03125 6.046875 -2.03125 C 6.597656 -2.03125 7.085938 -2.195312 7.515625 -2.53125 C 7.941406 -2.863281 8.441406 -3.363281 9.015625 -4.03125 C 9.171875 -4.21875 9.347656 -4.3125 9.546875 -4.3125 Z M 6.15625 -15 C 5.96875 -15 5.753906 -14.757812 5.515625 -14.28125 C 5.273438 -13.800781 5.046875 -13.128906 4.828125 -12.265625 C 4.617188 -11.410156 4.445312 -10.460938 4.3125 -9.421875 C 5.070312 -10.078125 5.640625 -10.8125 6.015625 -11.625 C 6.390625 -12.445312 6.578125 -13.191406 6.578125 -13.859375 C 6.578125 -14.617188 6.4375 -15 6.15625 -15 Z M 6.15625 -15 "/></g></g></g><g fill="#545454" fill-opacity="1"><g transform="translate(42.638212, 27.50798)"><g><path d="M 3.453125 -10.28125 C 2.910156 -10.28125 2.503906 -10.40625 2.234375 -10.65625 C 1.960938 -10.90625 1.828125 -11.253906 1.828125 -11.703125 C 1.828125 -12.148438 2.003906 -12.523438 2.359375 -12.828125 C 2.710938 -13.128906 3.15625 -13.28125 3.6875 -13.28125 C 4.164062 -13.28125 4.550781 -13.164062 4.84375 -12.9375 C 5.144531 -12.707031 5.296875 -12.378906 5.296875 -11.953125 C 5.296875 -11.441406 5.125 -11.035156 4.78125 -10.734375 C 4.445312 -10.429688 4.003906 -10.28125 3.453125 -10.28125 Z M 3.296875 0.09375 C 2.460938 0.09375 1.851562 -0.203125 1.46875 -0.796875 C 1.09375 -1.390625 0.90625 -2.171875 0.90625 -3.140625 C 0.90625 -3.722656 0.976562 -4.46875 1.125 -5.375 C 1.28125 -6.28125 1.472656 -7.128906 1.703125 -7.921875 C 1.816406 -8.328125 1.96875 -8.609375 2.15625 -8.765625 C 2.351562 -8.921875 2.664062 -9 3.09375 -9 C 3.75 -9 4.078125 -8.78125 4.078125 -8.34375 C 4.078125 -8.019531 3.953125 -7.273438 3.703125 -6.109375 C 3.398438 -4.691406 3.25 -3.726562 3.25 -3.21875 C 3.25 -2.832031 3.296875 -2.535156 3.390625 -2.328125 C 3.492188 -2.128906 3.671875 -2.03125 3.921875 -2.03125 C 4.148438 -2.03125 4.4375 -2.191406 4.78125 -2.515625 C 5.132812 -2.835938 5.601562 -3.34375 6.1875 -4.03125 C 6.332031 -4.21875 6.503906 -4.3125 6.703125 -4.3125 C 6.867188 -4.3125 7 -4.234375 7.09375 -4.078125 C 7.1875 -3.921875 7.234375 -3.707031 7.234375 -3.4375 C 7.234375 -2.925781 7.113281 -2.523438 6.875 -2.234375 C 5.601562 -0.679688 4.410156 0.09375 3.296875 0.09375 Z M 3.296875 0.09375 "/></g></g></g><g fill="#545454" fill-opacity="1"><g transform="translate(47.388565, 27.50798)"><g><path d="M 4.609375 0.09375 C 3.347656 0.09375 2.367188 -0.257812 1.671875 -0.96875 C 0.972656 -1.6875 0.625 -2.628906 0.625 -3.796875 C 0.625 -4.847656 0.828125 -5.765625 1.234375 -6.546875 C 1.648438 -7.328125 2.1875 -7.929688 2.84375 -8.359375 C 3.5 -8.785156 4.1875 -9 4.90625 -9 C 5.613281 -9 6.160156 -8.789062 6.546875 -8.375 C 6.941406 -7.957031 7.140625 -7.421875 7.140625 -6.765625 C 7.140625 -6.222656 7.019531 -5.765625 6.78125 -5.390625 C 6.550781 -5.015625 6.242188 -4.828125 5.859375 -4.828125 C 5.609375 -4.828125 5.410156 -4.882812 5.265625 -5 C 5.117188 -5.113281 5.046875 -5.273438 5.046875 -5.484375 C 5.046875 -5.578125 5.054688 -5.679688 5.078125 -5.796875 C 5.109375 -5.910156 5.128906 -5.992188 5.140625 -6.046875 C 5.203125 -6.234375 5.234375 -6.410156 5.234375 -6.578125 C 5.234375 -6.753906 5.191406 -6.882812 5.109375 -6.96875 C 5.023438 -7.0625 4.90625 -7.109375 4.75 -7.109375 C 4.457031 -7.109375 4.179688 -6.972656 3.921875 -6.703125 C 3.660156 -6.441406 3.453125 -6.085938 3.296875 -5.640625 C 3.148438 -5.191406 3.078125 -4.695312 3.078125 -4.15625 C 3.078125 -2.65625 3.722656 -1.90625 5.015625 -1.90625 C 5.546875 -1.90625 6.113281 -2.082031 6.71875 -2.4375 C 7.332031 -2.789062 7.9375 -3.320312 8.53125 -4.03125 C 8.6875 -4.21875 8.863281 -4.3125 9.0625 -4.3125 C 9.226562 -4.3125 9.359375 -4.234375 9.453125 -4.078125 C 9.546875 -3.921875 9.59375 -3.707031 9.59375 -3.4375 C 9.59375 -2.945312 9.472656 -2.546875 9.234375 -2.234375 C 8.628906 -1.492188 7.90625 -0.921875 7.0625 -0.515625 C 6.21875 -0.109375 5.398438 0.09375 4.609375 0.09375 Z M 4.609375 0.09375 "/></g></g></g><g fill="#545454" fill-opacity="1"><g transform="translate(54.49477, 27.50798)"><g><path d="M 12.09375 -4.3125 C 12.257812 -4.3125 12.390625 -4.234375 12.484375 -4.078125 C 12.578125 -3.921875 12.625 -3.707031 12.625 -3.4375 C 12.625 -2.925781 12.503906 -2.523438 12.265625 -2.234375 C 11.679688 -1.523438 11.09375 -0.957031 10.5 -0.53125 C 9.914062 -0.113281 9.21875 0.09375 8.40625 0.09375 C 7.40625 0.09375 6.601562 -0.1875 6 -0.75 C 5.394531 -1.320312 5.09375 -2.078125 5.09375 -3.015625 C 5.09375 -3.515625 5.351562 -3.875 5.875 -4.09375 C 6.4375 -4.34375 6.835938 -4.601562 7.078125 -4.875 C 7.328125 -5.15625 7.453125 -5.492188 7.453125 -5.890625 C 7.453125 -6.117188 7.40625 -6.289062 7.3125 -6.40625 C 7.21875 -6.519531 7.097656 -6.578125 6.953125 -6.578125 C 6.609375 -6.578125 6.222656 -6.328125 5.796875 -5.828125 C 5.378906 -5.328125 4.988281 -4.679688 4.625 -3.890625 C 4.269531 -3.097656 3.988281 -2.285156 3.78125 -1.453125 C 3.644531 -0.847656 3.484375 -0.4375 3.296875 -0.21875 C 3.109375 -0.0078125 2.8125 0.09375 2.40625 0.09375 C 2.007812 0.09375 1.71875 -0.046875 1.53125 -0.328125 C 1.34375 -0.617188 1.21875 -1.066406 1.15625 -1.671875 C 1.09375 -2.285156 1.0625 -3.175781 1.0625 -4.34375 C 1.0625 -6.320312 1.265625 -8.382812 1.671875 -10.53125 C 2.078125 -12.6875 2.675781 -14.492188 3.46875 -15.953125 C 4.257812 -17.421875 5.207031 -18.15625 6.3125 -18.15625 C 6.90625 -18.15625 7.382812 -17.898438 7.75 -17.390625 C 8.113281 -16.878906 8.296875 -16.21875 8.296875 -15.40625 C 8.296875 -14.101562 7.914062 -12.753906 7.15625 -11.359375 C 6.40625 -9.960938 5.171875 -8.332031 3.453125 -6.46875 C 3.421875 -5.800781 3.40625 -5.113281 3.40625 -4.40625 C 4.019531 -6.007812 4.722656 -7.175781 5.515625 -7.90625 C 6.316406 -8.632812 7.066406 -9 7.765625 -9 C 8.410156 -9 8.925781 -8.78125 9.3125 -8.34375 C 9.707031 -7.90625 9.90625 -7.363281 9.90625 -6.71875 C 9.90625 -6.007812 9.722656 -5.359375 9.359375 -4.765625 C 9.003906 -4.171875 8.390625 -3.644531 7.515625 -3.1875 C 7.566406 -2.84375 7.722656 -2.5625 7.984375 -2.34375 C 8.242188 -2.132812 8.5625 -2.03125 8.9375 -2.03125 C 9.34375 -2.03125 9.726562 -2.179688 10.09375 -2.484375 C 10.46875 -2.796875 10.957031 -3.3125 11.5625 -4.03125 C 11.71875 -4.21875 11.894531 -4.3125 12.09375 -4.3125 Z M 5.90625 -16.234375 C 5.675781 -16.234375 5.421875 -15.898438 5.140625 -15.234375 C 4.859375 -14.578125 4.582031 -13.6875 4.3125 -12.5625 C 4.050781 -11.4375 3.835938 -10.210938 3.671875 -8.890625 C 4.460938 -9.828125 5.117188 -10.847656 5.640625 -11.953125 C 6.171875 -13.054688 6.4375 -14.0625 6.4375 -14.96875 C 6.4375 -15.375 6.390625 -15.6875 6.296875 -15.90625 C 6.203125 -16.125 6.070312 -16.234375 5.90625 -16.234375 Z M 5.90625 -16.234375 "/></g></g></g><g fill="#545454" fill-opacity="1"><g transform="translate(64.632695, 27.50798)"><g><path d="M 10.8125 -4.265625 C 10.976562 -4.265625 11.109375 -4.179688 11.203125 -4.015625 C 11.304688 -3.859375 11.359375 -3.660156 11.359375 -3.421875 C 11.359375 -3.117188 11.3125 -2.882812 11.21875 -2.71875 C 11.125 -2.550781 10.984375 -2.40625 10.796875 -2.28125 L 7.09375 0.21875 C 6.601562 2.875 5.960938 4.960938 5.171875 6.484375 C 4.378906 8.015625 3.367188 8.78125 2.140625 8.78125 C 1.484375 8.78125 0.945312 8.578125 0.53125 8.171875 C 0.125 7.773438 -0.078125 7.242188 -0.078125 6.578125 C -0.078125 5.972656 0.0546875 5.351562 0.328125 4.71875 C 0.609375 4.09375 1.125 3.367188 1.875 2.546875 C 2.632812 1.734375 3.703125 0.800781 5.078125 -0.25 L 5.140625 -0.6875 C 5.222656 -1.164062 5.328125 -1.851562 5.453125 -2.75 C 5.191406 -1.820312 4.828125 -1.113281 4.359375 -0.625 C 3.898438 -0.144531 3.410156 0.09375 2.890625 0.09375 C 2.316406 0.09375 1.84375 -0.171875 1.46875 -0.703125 C 1.101562 -1.234375 0.921875 -1.898438 0.921875 -2.703125 C 0.921875 -3.671875 0.984375 -4.554688 1.109375 -5.359375 C 1.242188 -6.160156 1.457031 -7.015625 1.75 -7.921875 C 1.882812 -8.304688 2.066406 -8.582031 2.296875 -8.75 C 2.523438 -8.914062 2.894531 -9 3.40625 -9 C 3.6875 -9 3.878906 -8.953125 3.984375 -8.859375 C 4.097656 -8.773438 4.15625 -8.640625 4.15625 -8.453125 C 4.15625 -8.347656 4.082031 -8.003906 3.9375 -7.421875 C 3.8125 -6.941406 3.707031 -6.507812 3.625 -6.125 C 3.519531 -5.59375 3.429688 -5.082031 3.359375 -4.59375 C 3.285156 -4.113281 3.25 -3.722656 3.25 -3.421875 C 3.25 -2.929688 3.382812 -2.6875 3.65625 -2.6875 C 3.84375 -2.6875 4.082031 -2.878906 4.375 -3.265625 C 4.664062 -3.648438 4.972656 -4.234375 5.296875 -5.015625 C 5.628906 -5.804688 5.945312 -6.773438 6.25 -7.921875 C 6.351562 -8.304688 6.507812 -8.582031 6.71875 -8.75 C 6.9375 -8.914062 7.257812 -9 7.6875 -9 C 7.976562 -9 8.179688 -8.957031 8.296875 -8.875 C 8.421875 -8.800781 8.484375 -8.675781 8.484375 -8.5 C 8.484375 -8.175781 8.3125 -7.066406 7.96875 -5.171875 L 7.46875 -2.0625 C 8.46875 -2.8125 9.4375 -3.492188 10.375 -4.109375 C 10.539062 -4.210938 10.6875 -4.265625 10.8125 -4.265625 Z M 2.359375 6.90625 C 2.679688 6.90625 3.039062 6.53125 3.4375 5.78125 C 3.832031 5.039062 4.234375 3.800781 4.640625 2.0625 C 3.640625 2.90625 2.914062 3.671875 2.46875 4.359375 C 2.03125 5.046875 1.8125 5.644531 1.8125 6.15625 C 1.8125 6.375 1.851562 6.550781 1.9375 6.6875 C 2.019531 6.832031 2.160156 6.90625 2.359375 6.90625 Z M 2.359375 6.90625 "/></g></g></g><g fill="#545454" fill-opacity="1"><g transform="translate(73.882352, 27.50798)"><g><path d="M 2.265625 0.09375 C 1.691406 0.09375 1.257812 -0.0546875 0.96875 -0.359375 C 0.6875 -0.671875 0.546875 -1.078125 0.546875 -1.578125 C 0.546875 -2.160156 0.707031 -2.625 1.03125 -2.96875 C 1.363281 -3.320312 1.820312 -3.5 2.40625 -3.5 C 2.976562 -3.5 3.410156 -3.359375 3.703125 -3.078125 C 3.992188 -2.804688 4.140625 -2.398438 4.140625 -1.859375 C 4.140625 -1.265625 3.96875 -0.789062 3.625 -0.4375 C 3.289062 -0.0820312 2.835938 0.09375 2.265625 0.09375 Z M 2.265625 0.09375 "/></g></g></g><g fill="#545454" fill-opacity="1"><g transform="translate(78.845105, 27.50798)"><g><path d="M 4.609375 0.09375 C 3.347656 0.09375 2.367188 -0.257812 1.671875 -0.96875 C 0.972656 -1.6875 0.625 -2.628906 0.625 -3.796875 C 0.625 -4.847656 0.828125 -5.765625 1.234375 -6.546875 C 1.648438 -7.328125 2.1875 -7.929688 2.84375 -8.359375 C 3.5 -8.785156 4.1875 -9 4.90625 -9 C 5.613281 -9 6.160156 -8.789062 6.546875 -8.375 C 6.941406 -7.957031 7.140625 -7.421875 7.140625 -6.765625 C 7.140625 -6.222656 7.019531 -5.765625 6.78125 -5.390625 C 6.550781 -5.015625 6.242188 -4.828125 5.859375 -4.828125 C 5.609375 -4.828125 5.410156 -4.882812 5.265625 -5 C 5.117188 -5.113281 5.046875 -5.273438 5.046875 -5.484375 C 5.046875 -5.578125 5.054688 -5.679688 5.078125 -5.796875 C 5.109375 -5.910156 5.128906 -5.992188 5.140625 -6.046875 C 5.203125 -6.234375 5.234375 -6.410156 5.234375 -6.578125 C 5.234375 -6.753906 5.191406 -6.882812 5.109375 -6.96875 C 5.023438 -7.0625 4.90625 -7.109375 4.75 -7.109375 C 4.457031 -7.109375 4.179688 -6.972656 3.921875 -6.703125 C 3.660156 -6.441406 3.453125 -6.085938 3.296875 -5.640625 C 3.148438 -5.191406 3.078125 -4.695312 3.078125 -4.15625 C 3.078125 -2.65625 3.722656 -1.90625 5.015625 -1.90625 C 5.546875 -1.90625 6.113281 -2.082031 6.71875 -2.4375 C 7.332031 -2.789062 7.9375 -3.320312 8.53125 -4.03125 C 8.6875 -4.21875 8.863281 -4.3125 9.0625 -4.3125 C 9.226562 -4.3125 9.359375 -4.234375 9.453125 -4.078125 C 9.546875 -3.921875 9.59375 -3.707031 9.59375 -3.4375 C 9.59375 -2.945312 9.472656 -2.546875 9.234375 -2.234375 C 8.628906 -1.492188 7.90625 -0.921875 7.0625 -0.515625 C 6.21875 -0.109375 5.398438 0.09375 4.609375 0.09375 Z M 4.609375 0.09375 "/></g></g></g><g fill="#545454" fill-opacity="1"><g transform="translate(85.951311, 27.50798)"><g><path d="M 10.78125 -5.921875 C 10.945312 -5.921875 11.070312 -5.835938 11.15625 -5.671875 C 11.25 -5.503906 11.296875 -5.296875 11.296875 -5.046875 C 11.296875 -4.421875 11.109375 -4.050781 10.734375 -3.9375 C 9.960938 -3.664062 9.113281 -3.507812 8.1875 -3.46875 C 7.945312 -2.394531 7.460938 -1.53125 6.734375 -0.875 C 6.015625 -0.226562 5.195312 0.09375 4.28125 0.09375 C 3.507812 0.09375 2.847656 -0.09375 2.296875 -0.46875 C 1.753906 -0.84375 1.34375 -1.335938 1.0625 -1.953125 C 0.78125 -2.566406 0.640625 -3.234375 0.640625 -3.953125 C 0.640625 -4.929688 0.820312 -5.800781 1.1875 -6.5625 C 1.5625 -7.332031 2.078125 -7.929688 2.734375 -8.359375 C 3.398438 -8.796875 4.128906 -9.015625 4.921875 -9.015625 C 5.898438 -9.015625 6.6875 -8.675781 7.28125 -8 C 7.882812 -7.320312 8.238281 -6.488281 8.34375 -5.5 C 8.945312 -5.539062 9.664062 -5.671875 10.5 -5.890625 C 10.601562 -5.910156 10.695312 -5.921875 10.78125 -5.921875 Z M 4.4375 -1.953125 C 4.851562 -1.953125 5.210938 -2.117188 5.515625 -2.453125 C 5.816406 -2.785156 6.019531 -3.269531 6.125 -3.90625 C 5.71875 -4.175781 5.410156 -4.53125 5.203125 -4.96875 C 4.992188 -5.40625 4.890625 -5.867188 4.890625 -6.359375 C 4.890625 -6.554688 4.90625 -6.757812 4.9375 -6.96875 L 4.84375 -6.96875 C 4.332031 -6.96875 3.90625 -6.71875 3.5625 -6.21875 C 3.21875 -5.726562 3.046875 -5.035156 3.046875 -4.140625 C 3.046875 -3.429688 3.179688 -2.890625 3.453125 -2.515625 C 3.734375 -2.140625 4.0625 -1.953125 4.4375 -1.953125 Z M 4.4375 -1.953125 "/></g></g></g><g clip-path="url(#id2)"><g fill="#545454" fill-opacity="1"><g transform="translate(94.660279, 27.50798)"><g><path d="M 2.296875 0.09375 C 1.804688 0.09375 1.460938 -0.160156 1.265625 -0.671875 C 1.066406 -1.191406 0.96875 -2.015625 0.96875 -3.140625 C 0.96875 -4.816406 1.207031 -6.410156 1.6875 -7.921875 C 1.800781 -8.296875 1.988281 -8.566406 2.25 -8.734375 C 2.507812 -8.910156 2.878906 -9 3.359375 -9 C 3.617188 -9 3.800781 -8.96875 3.90625 -8.90625 C 4.007812 -8.84375 4.0625 -8.71875 4.0625 -8.53125 C 4.0625 -8.332031 3.960938 -7.867188 3.765625 -7.140625 C 3.640625 -6.628906 3.535156 -6.179688 3.453125 -5.796875 C 3.378906 -5.421875 3.316406 -4.953125 3.265625 -4.390625 C 3.609375 -5.390625 4.019531 -6.234375 4.5 -6.921875 C 4.988281 -7.617188 5.488281 -8.140625 6 -8.484375 C 6.507812 -8.828125 6.988281 -9 7.4375 -9 C 7.882812 -9 8.203125 -8.894531 8.390625 -8.6875 C 8.578125 -8.476562 8.671875 -8.164062 8.671875 -7.75 C 8.671875 -7.332031 8.546875 -6.582031 8.296875 -5.5 C 8.203125 -5.039062 8.132812 -4.695312 8.09375 -4.46875 C 8.738281 -6.050781 9.453125 -7.203125 10.234375 -7.921875 C 11.015625 -8.640625 11.75 -9 12.4375 -9 C 13.269531 -9 13.6875 -8.582031 13.6875 -7.75 C 13.6875 -7.238281 13.546875 -6.328125 13.265625 -5.015625 C 13.023438 -3.898438 12.90625 -3.160156 12.90625 -2.796875 C 12.90625 -2.285156 13.085938 -2.03125 13.453125 -2.03125 C 13.710938 -2.03125 14.019531 -2.1875 14.375 -2.5 C 14.726562 -2.8125 15.203125 -3.320312 15.796875 -4.03125 C 15.953125 -4.21875 16.125 -4.3125 16.3125 -4.3125 C 16.476562 -4.3125 16.609375 -4.234375 16.703125 -4.078125 C 16.804688 -3.921875 16.859375 -3.707031 16.859375 -3.4375 C 16.859375 -2.925781 16.738281 -2.523438 16.5 -2.234375 C 15.9375 -1.554688 15.335938 -1 14.703125 -0.5625 C 14.066406 -0.125 13.34375 0.09375 12.53125 0.09375 C 11.875 0.09375 11.378906 -0.09375 11.046875 -0.46875 C 10.710938 -0.851562 10.546875 -1.40625 10.546875 -2.125 C 10.546875 -2.488281 10.632812 -3.132812 10.8125 -4.0625 C 10.976562 -4.863281 11.0625 -5.421875 11.0625 -5.734375 C 11.0625 -5.941406 10.992188 -6.046875 10.859375 -6.046875 C 10.691406 -6.046875 10.453125 -5.828125 10.140625 -5.390625 C 9.828125 -4.960938 9.515625 -4.394531 9.203125 -3.6875 C 8.898438 -2.976562 8.648438 -2.234375 8.453125 -1.453125 C 8.316406 -0.828125 8.15625 -0.410156 7.96875 -0.203125 C 7.78125 -0.00390625 7.476562 0.09375 7.0625 0.09375 C 6.644531 0.09375 6.328125 -0.109375 6.109375 -0.515625 C 5.898438 -0.921875 5.796875 -1.410156 5.796875 -1.984375 C 5.796875 -2.472656 5.859375 -3.179688 5.984375 -4.109375 C 6.085938 -4.929688 6.140625 -5.472656 6.140625 -5.734375 C 6.140625 -5.941406 6.066406 -6.046875 5.921875 -6.046875 C 5.734375 -6.046875 5.488281 -5.8125 5.1875 -5.34375 C 4.894531 -4.882812 4.609375 -4.289062 4.328125 -3.5625 C 4.054688 -2.84375 3.835938 -2.140625 3.671875 -1.453125 C 3.523438 -0.847656 3.359375 -0.4375 3.171875 -0.21875 C 2.984375 -0.0078125 2.691406 0.09375 2.296875 0.09375 Z M 2.296875 0.09375 "/></g></g></g></g></svg>